<svg width="116" height="34" viewBox="0 0 116 34" fill="none" xmlns="http://www.w3.org/2000/svg">
<path d="M0.968 0.399998H7.592L12.728 20.512H12.824V0.399998H17.528V34H12.104L5.768 9.472H5.672V34H0.968V0.399998ZM21.4524 0.399998H35.8524V5.2H26.7324V14.08H33.9804V18.88H26.7324V29.2H35.8524V34H21.4524V0.399998ZM43.0179 5.2H37.4979V0.399998H53.8179V5.2H48.2979V34H43.0179V5.2ZM56.3743 0.399998H70.3423V5.2H61.6543V14.56H68.4703V19.36H61.6543V34H56.3743V0.399998ZM72.8743 0.399998H78.1543V29.2H86.8423V34H72.8743V0.399998ZM89.3743 0.399998H94.6543V34H89.3743V0.399998ZM103.265 16.816L97.4566 0.399998H103.025L106.577 11.248H106.673L110.321 0.399998H115.313L109.505 16.816L115.601 34H110.033L106.193 22.288H106.097L102.161 34H97.1686L103.265 16.816Z" fill="#C40811"/>
</svg>
